<svg width="667" height="506" viewBox="0 0 667 506" fill="none" xmlns="http://www.w3.org/2000/svg">
<path d="M294.7 51.575V48.6746L292.333 50.3509L45.2331 225.351L43.5048 226.575L45.233 227.799L292.333 402.824L294.7 404.501V401.6V294.675H319.875C416.287 294.7 531.793 294.783 632.04 410.756L635.508 414.768L634.656 409.534C621.149 326.628 588.458 264.544 535.988 222.987C483.535 181.444 411.508 160.565 319.615 159.675L319.614 159.675L294.7 159.439V51.575ZM2.5951 226.575L318.375 2.90065V134.525V136.011L319.861 136.025C483.561 137.608 569.816 201.667 615.253 279.258C659.274 354.432 665.121 442.541 665.458 499.632C615.91 413.15 561.868 367.803 504.365 344.107C445.833 319.987 383.873 318.375 319.876 318.35L318.375 318.349V319.85V450.249L2.5951 226.575Z" fill="#4285F4" stroke="black" stroke-width="3"/>
</svg>
