<svg width="871" height="599" viewBox="0 0 871 599" fill="none" xmlns="http://www.w3.org/2000/svg">
<path d="M869.565 86.0495L869.565 86.0753L869.569 86.1009C869.962 88.8561 869.957 91.6862 869.508 94.5182L869.504 94.5387L869.503 94.5594C869.258 97.8373 868.421 100.951 867.1 103.791L867.081 103.832L867.07 103.875L806.433 335.01L806.43 335.021L806.428 335.031C806.26 335.806 806.06 336.574 805.827 337.331L805.824 337.341L805.821 337.351L805.232 339.594C800.248 353.131 786.023 360.975 771.78 358.85L771.724 358.841L771.667 358.846L304.509 394.793L303.878 394.842L304.071 395.444L311.692 419.246L311.803 419.594H312.168H313.863H711.19H718.145H718.296C767.621 419.594 807.606 459.579 807.606 508.899C807.606 558.22 767.621 598.205 718.296 598.205H711.19C661.869 598.205 621.884 558.22 621.884 508.899C621.884 498.463 623.683 488.443 626.974 479.132L627.209 478.465H626.502H398.557H397.85L398.086 479.132C401.376 488.443 403.176 498.462 403.176 508.899C403.176 558.22 363.19 598.205 313.868 598.205H307.52C258.199 598.205 218.212 558.22 218.212 508.899C218.212 479.947 231.994 454.212 253.36 437.894L253.64 437.68L253.533 437.345L132.641 59.7202L132.53 59.3726H132.165H27.2149C12.4585 59.3726 0.5 47.4094 0.5 32.6589V27.2161C0.5 12.4609 12.4597 0.5 27.2149 0.5H159.505C174.259 0.5 186.219 12.4609 186.219 27.2161V27.2198V27.2978L186.243 27.3722L285.309 336.831L285.43 337.207L285.824 337.177L752.15 301.293L752.505 301.266L752.596 300.922L800.093 119.867L800.258 119.24H799.609H306.912C292.16 119.24 280.202 107.281 280.202 92.5255V87.0827C280.202 72.3323 292.16 60.3714 306.912 60.3714H842.875C857.282 60.3714 869.017 71.7754 869.565 86.0495ZM715.425 478.464H713.308C696.5 478.464 682.871 492.094 682.871 508.902C682.871 525.711 696.5 539.336 713.308 539.336H715.425C732.233 539.336 745.859 525.711 745.859 508.902C745.859 492.094 732.233 478.464 715.425 478.464ZM342.187 508.902C342.187 492.094 328.561 478.464 311.748 478.464H309.636C292.828 478.464 279.198 492.094 279.198 508.902C279.198 525.711 292.828 539.336 309.636 539.336H311.748C328.56 539.336 342.187 525.711 342.187 508.902Z" fill="#BDBDBD" stroke="black"/>
</svg>
