<svg width="871" height="599" viewBox="0 0 871 599" fill="none" xmlns="http://www.w3.org/2000/svg">
<path d="M869.606 86.1036L869.607 86.1294L869.611 86.155C870.003 88.9101 869.999 91.7402 869.549 94.5723L869.546 94.5928L869.544 94.6135C869.3 97.8913 868.463 101.006 867.142 103.845L867.123 103.886L867.111 103.929L806.474 335.064L806.471 335.075L806.469 335.085C806.301 335.861 806.101 336.628 805.868 337.385L805.865 337.395L805.862 337.405L805.273 339.648C800.29 353.185 786.064 361.029 771.821 358.904L771.765 358.895L771.709 358.9L304.55 394.847L303.919 394.896L304.112 395.498L311.733 419.3L311.845 419.648H312.209H313.905H711.231H718.187H718.337C767.662 419.648 807.647 459.633 807.647 508.953C807.647 558.274 767.662 598.259 718.337 598.259H711.231C661.91 598.259 621.925 558.274 621.925 508.953C621.925 498.517 623.725 488.497 627.015 479.186L627.251 478.519H626.544H398.599H397.892L398.127 479.186C401.418 488.497 403.217 498.516 403.217 508.953C403.217 558.274 363.231 598.259 313.91 598.259H307.561C258.24 598.259 218.254 558.274 218.254 508.953C218.254 480.001 232.035 454.266 253.401 437.948L253.682 437.734L253.574 437.399L132.682 59.7743L132.571 59.4267H132.206H27.2563C12.4999 59.4267 0.541374 47.4634 0.541374 32.713V27.2702C0.541374 12.515 12.5011 0.554077 27.2563 0.554077H159.546C174.3 0.554077 186.26 12.5149 186.26 27.2702V27.2738V27.3519L186.284 27.4263L285.35 336.885L285.471 337.261L285.865 337.231L752.192 301.347L752.547 301.32L752.637 300.976L800.135 119.921L800.299 119.295H799.651H306.953C292.202 119.295 280.243 107.335 280.243 92.5796V87.1368C280.243 72.3864 292.202 60.4255 306.953 60.4255H842.916C857.323 60.4255 869.059 71.8295 869.606 86.1036ZM715.466 478.518H713.35C696.542 478.518 682.912 492.148 682.912 508.956C682.912 525.765 696.542 539.39 713.35 539.39H715.466C732.274 539.39 745.9 525.765 745.9 508.956C745.9 492.148 732.274 478.518 715.466 478.518ZM342.228 508.956C342.228 492.148 328.602 478.518 311.789 478.518H309.677C292.869 478.518 279.24 492.148 279.24 508.956C279.24 525.765 292.869 539.39 309.677 539.39H311.789C328.602 539.39 342.228 525.765 342.228 508.956Z" fill="#4285F4" stroke="black"/>
</svg>
