<svg width="470" height="512" viewBox="0 0 470 512" fill="none" xmlns="http://www.w3.org/2000/svg">
<path d="M235.333 469.833H107.333C90.2268 469.833 73.821 463.038 61.7249 450.942C49.6288 438.846 42.8333 422.44 42.8333 405.333V106.667C42.8333 89.5602 49.6288 73.1544 61.7249 61.0583C73.821 48.9622 90.2268 42.1667 107.333 42.1667H363.333C369.124 42.1667 374.677 44.4669 378.772 48.5615C382.866 52.656 385.167 58.2094 385.167 64V234.667C385.167 240.192 387.362 245.491 391.269 249.398C395.176 253.305 400.475 255.5 406 255.5C411.525 255.5 416.824 253.305 420.731 249.398C424.638 245.491 426.833 240.192 426.833 234.667V64C426.833 47.1587 420.143 31.0073 408.235 19.0987C396.326 7.19015 380.175 0.499992 363.333 0.499992H107.334C79.1867 0.533787 52.2024 11.7301 32.2995 31.6329C12.3967 51.5358 1.20042 78.5201 1.16663 106.667V405.333C1.20042 433.48 12.3967 460.464 32.2995 480.367C52.2023 500.27 79.1866 511.466 107.333 511.5M235.333 469.833L107.333 511.5M235.333 469.833C240.859 469.833 246.158 472.028 250.065 475.935C253.972 479.842 256.167 485.141 256.167 490.667C256.167 496.192 253.972 501.491 250.065 505.398C246.158 509.305 240.859 511.5 235.333 511.5L107.334 511.5M235.333 469.833L107.334 511.5M107.333 511.5C107.333 511.5 107.334 511.5 107.334 511.5M107.333 511.5L107.334 511.5M382.588 454.046L382.304 453.762L381.966 453.979C366.839 463.633 349.277 468.785 331.332 468.833C312.444 468.833 293.981 463.232 278.276 452.739C262.571 442.245 250.331 427.33 243.103 409.88C235.875 392.429 233.983 373.227 237.668 354.702C241.353 336.177 250.449 319.161 263.805 305.805C277.161 292.449 294.177 283.353 312.702 279.668C331.227 275.983 350.429 277.875 367.88 285.103C385.33 292.331 400.245 304.571 410.739 320.276C421.232 335.981 426.833 354.444 426.833 373.332C426.785 391.277 421.633 408.839 411.978 423.966L411.762 424.304L412.046 424.588L463.396 475.938C467.301 479.844 469.495 485.142 469.495 490.667C469.495 496.191 467.301 501.489 463.396 505.396C459.489 509.301 454.191 511.495 448.667 511.495C443.142 511.495 437.844 509.301 433.937 505.396L382.588 454.046ZM299.333 128.5C304.859 128.5 310.158 130.695 314.065 134.602C317.972 138.509 320.167 143.808 320.167 149.333C320.167 154.859 317.972 160.158 314.065 164.065C310.158 167.972 304.859 170.167 299.333 170.167H128.667C123.141 170.167 117.842 167.972 113.935 164.065C110.028 160.158 107.833 154.859 107.833 149.333C107.833 143.808 110.028 138.509 113.935 134.602C117.842 130.695 123.141 128.5 128.667 128.5H299.333ZM331.333 427.167C341.981 427.167 352.389 424.009 361.241 418.094C370.094 412.179 376.994 403.771 381.069 393.934C385.143 384.098 386.209 373.274 384.132 362.831C382.055 352.388 376.928 342.796 369.399 335.267C361.87 327.739 352.278 322.612 341.836 320.534C331.393 318.457 320.569 319.523 310.732 323.598C300.895 327.672 292.488 334.572 286.573 343.425C280.657 352.278 277.5 362.686 277.5 373.333C277.5 387.611 283.172 401.304 293.267 411.399C303.363 421.495 317.056 427.167 331.333 427.167Z" fill="#4285F4" stroke="black"/>
</svg>
