<svg width="470" height="512" viewBox="0 0 470 512" fill="none" xmlns="http://www.w3.org/2000/svg">
<path d="M234.667 469.833H106.667C89.5602 469.833 73.1544 463.038 61.0583 450.942C48.9622 438.846 42.1667 422.44 42.1667 405.333V106.667C42.1667 89.5602 48.9622 73.1544 61.0583 61.0583C73.1544 48.9622 89.5602 42.1667 106.667 42.1667H362.667C368.457 42.1667 374.011 44.467 378.105 48.5615C382.2 52.656 384.5 58.2094 384.5 64V234.667C384.5 240.192 386.695 245.491 390.602 249.398C394.509 253.305 399.808 255.5 405.333 255.5C410.859 255.5 416.158 253.305 420.065 249.398C423.972 245.491 426.167 240.192 426.167 234.667V64C426.167 47.1588 419.477 31.0073 407.568 19.0987C395.659 7.19016 379.508 0.5 362.667 0.5H106.667C78.5201 0.533794 51.5358 11.7301 31.6329 31.6329C11.7301 51.5358 0.533794 78.5201 0.5 106.667V405.333C0.533794 433.48 11.7301 460.464 31.6329 480.367C51.5357 500.27 78.5199 511.466 106.667 511.5M234.667 469.833L106.667 511.5M234.667 469.833C240.192 469.833 245.491 472.028 249.398 475.935C253.305 479.842 255.5 485.141 255.5 490.667C255.5 496.192 253.305 501.491 249.398 505.398C245.491 509.305 240.192 511.5 234.667 511.5L106.667 511.5M234.667 469.833L106.667 511.5M106.667 511.5C106.667 511.5 106.667 511.5 106.667 511.5M106.667 511.5L106.667 511.5M381.922 454.046L381.638 453.762L381.299 453.979C366.172 463.633 348.611 468.785 330.665 468.833C311.778 468.833 293.314 463.232 277.61 452.739C261.905 442.245 249.664 427.33 242.436 409.88C235.208 392.429 233.317 373.227 237.002 354.702C240.687 336.177 249.782 319.161 263.138 305.805C276.494 292.449 293.51 283.353 312.036 279.668C330.561 275.983 349.763 277.875 367.213 285.103C384.663 292.331 399.578 304.572 410.072 320.276C420.565 335.981 426.166 354.444 426.167 373.332C426.119 391.277 420.967 408.839 411.312 423.966L411.096 424.304L411.38 424.588L462.729 475.938C466.635 479.844 468.829 485.142 468.829 490.667C468.829 496.191 466.635 501.489 462.729 505.396C458.822 509.301 453.524 511.495 448 511.495C442.476 511.495 437.178 509.301 433.271 505.396L381.922 454.046ZM298.667 128.5C304.192 128.5 309.491 130.695 313.398 134.602C317.305 138.509 319.5 143.808 319.5 149.333C319.5 154.859 317.305 160.158 313.398 164.065C309.491 167.972 304.192 170.167 298.667 170.167H128C122.475 170.167 117.176 167.972 113.269 164.065C109.362 160.158 107.167 154.859 107.167 149.333C107.167 143.808 109.362 138.509 113.269 134.602C117.176 130.695 122.475 128.5 128 128.5H298.667ZM330.667 427.167C341.314 427.167 351.722 424.009 360.575 418.094C369.428 412.179 376.328 403.771 380.402 393.934C384.477 384.098 385.543 373.274 383.466 362.831C381.388 352.388 376.261 342.796 368.733 335.267C361.204 327.739 351.612 322.612 341.169 320.534C330.726 318.457 319.902 319.523 310.066 323.598C300.229 327.672 291.821 334.572 285.906 343.425C279.991 352.278 276.833 362.686 276.833 373.333C276.833 387.611 282.505 401.304 292.601 411.399C302.696 421.495 316.389 427.167 330.667 427.167Z" fill="#BDBDBD" stroke="black"/>
</svg>
