<svg width="427" height="512" viewBox="0 0 427 512" fill="none" xmlns="http://www.w3.org/2000/svg">
<path d="M384 128.5H426.167V234.167H384H383.5V234.667V319.5H43.1667V234.667V234.167H42.6667H0.5V128.5H42.6667H43.1667V128V106.667C43.1667 71.6575 71.6575 43.1667 106.667 43.1667H192H192.5V42.6667V0.5H234.167V42.6667V43.1667H234.667H320C355.009 43.1667 383.5 71.6575 383.5 106.667V128V128.5H384ZM84.8333 277.333V277.833H85.3333H341.333H341.833V277.333V106.667C341.833 94.6142 332.03 84.8333 320 84.8333H106.667C94.6362 84.8333 84.8333 94.6142 84.8333 106.667V277.333ZM404.833 448V511.5H363.167V448C363.167 424.193 343.807 404.833 320 404.833H106.667C82.8599 404.833 63.5 424.193 63.5 448V511.5H21.8333V448C21.8333 401.215 59.8815 363.167 106.667 363.167H320C366.785 363.167 404.833 401.215 404.833 448ZM128.5 181.333C128.5 163.945 142.612 149.833 160 149.833C177.388 149.833 191.5 163.945 191.5 181.333C191.5 198.721 177.388 212.833 160 212.833C142.612 212.833 128.5 198.721 128.5 181.333ZM235.167 181.333C235.167 163.945 249.279 149.833 266.667 149.833C284.055 149.833 298.167 163.945 298.167 181.333C298.167 198.721 284.055 212.833 266.667 212.833C249.279 212.833 235.167 198.721 235.167 181.333Z" fill="#BDBDBD" stroke="black"/>
</svg>
