<svg width="512" height="512" viewBox="0 0 512 512" fill="none" xmlns="http://www.w3.org/2000/svg">
<path d="M48.9441 488.969L49.2278 488.558L53.3963 491.43C73.0999 504.987 95.6476 511.5 117.986 511.5C153.954 511.5 189.364 494.634 211.382 463.19L211.792 463.477L211.382 463.19L244.607 415.774C249.365 408.982 247.668 399.649 240.822 394.921C233.95 390.214 224.548 391.895 219.781 398.675L186.556 446.098C160.355 483.498 108.349 492.78 70.6442 466.815L70.9194 466.415L70.6441 466.815L66.4754 463.943C28.7542 437.962 19.3714 386.394 45.2401 349.438L45.2453 349.431L45.2508 349.424L153.992 205.542C166.684 187.423 185.729 175.291 207.613 171.375C229.484 167.45 251.617 172.232 269.899 184.824L48.9441 488.969ZM48.9441 488.969L49.2277 488.558C-2.1757 453.16 -14.9604 382.885 20.7292 331.912L129.479 188.023L129.484 188.015L129.489 188.008C146.454 163.764 172.404 147.223 202.246 141.889L202.246 141.889C232.087 136.54 262.227 143.06 287.132 160.21L287.132 160.21L291.3 163.074C291.3 163.074 291.301 163.074 291.301 163.075C312.441 177.626 328.102 199.114 335.408 223.575C337.771 231.505 333.212 239.843 325.2 242.19C317.2 244.522 308.791 240.014 306.419 232.068C300.992 213.866 289.798 198.514 274.068 187.689L274.068 187.689L269.899 184.825L48.9441 488.969Z" fill="#4285F4" stroke="black"/>
<path d="M220.655 348.957L220.655 348.958L224.855 351.86L220.655 348.957ZM220.655 348.957C199.53 334.406 183.884 312.933 176.594 288.495C174.231 280.558 178.798 272.227 186.802 269.88C194.841 267.534 203.226 272.064 205.582 280.001L205.582 280.002M220.655 348.957L205.582 280.002M205.582 280.002C211.002 298.188 222.188 313.533 237.917 324.365L205.582 280.002ZM242.118 327.269L242.117 327.268L237.918 324.366L242.118 327.269ZM242.118 327.269C279.805 353.217 331.806 343.922 358.009 306.528C358.011 306.526 358.013 306.523 358.014 306.521L466.751 162.623L466.757 162.616M242.118 327.269L466.757 162.616M466.757 162.616L466.762 162.609M466.757 162.616L466.762 162.609M466.762 162.609C492.638 125.653 483.255 74.0847 445.534 48.104L445.533 48.1029M466.762 162.609L445.533 48.1029M445.533 48.1029L441.397 45.2785L445.533 48.1029ZM379.071 31.7977L379.072 31.7976C400.973 27.8963 423.081 32.6544 441.395 45.2773L379.071 31.7977ZM379.071 31.7977C357.185 35.7147 338.137 47.8491 325.446 65.9722L292.228 113.388L292.228 113.388M379.071 31.7977L292.228 113.388M292.228 113.388C287.468 120.191 278.051 121.872 271.195 117.149C264.342 112.429 262.644 103.096 267.402 96.3038L300.62 48.8878L300.62 48.8877M292.228 113.388L300.62 48.8877M300.62 48.8877C317.913 24.1855 343.864 7.64589 373.712 2.31198C403.545 -3.01424 433.701 3.49091 458.605 20.6483L458.607 20.6492M300.62 48.8877L458.607 20.6492M458.607 20.6492L462.735 23.4739C514.185 58.9105 526.962 129.186 491.265 180.15C491.263 180.153 491.261 180.155 491.26 180.158L382.523 324.055L382.518 324.062M458.607 20.6492L382.518 324.062M382.518 324.062L382.513 324.07M382.518 324.062L382.513 324.07M382.513 324.07C360.714 355.18 325.436 371.946 289.546 371.946C267.184 371.946 244.59 365.441 224.855 351.861L382.513 324.07Z" fill="#4285F4" stroke="black"/>
<path d="M382.463 231.639L382.463 231.639C379.234 229.242 378.579 224.704 381.002 221.513L381.002 221.512L385.28 215.861L385.281 215.861C387.698 212.66 392.289 212.02 395.505 214.412L395.505 214.412C398.734 216.81 399.389 221.348 396.966 224.539L396.966 224.539L392.688 230.191L392.687 230.192C391.256 232.095 389.066 233.089 386.841 233.089C385.313 233.089 383.779 232.618 382.463 231.639Z" fill="#4285F4" stroke="black"/>
<path d="M400.317 208.028L400.317 208.028C397.088 205.63 396.433 201.092 398.856 197.902L398.856 197.901L433.409 152.196L433.414 152.188L433.419 152.181C441.779 140.242 445.009 125.506 442.354 110.93C439.7 96.3455 431.482 83.6577 419.21 75.2142L419.209 75.2137L416.532 73.3795C416.532 73.3794 416.532 73.3793 416.532 73.3792C413.215 71.097 412.392 66.5871 414.684 63.3014L414.684 63.3008C416.969 60.0139 421.523 59.1847 424.858 61.4693L427.542 63.3111C427.543 63.3112 427.543 63.3114 427.543 63.3115C443.024 73.9738 453.386 89.9678 456.734 108.353C460.082 126.736 456.008 145.316 445.268 160.657L410.559 206.585C410.558 206.586 410.558 206.586 410.557 206.587C409.11 208.478 406.926 209.478 404.695 209.478C403.167 209.478 401.633 209.007 400.317 208.028Z" fill="#4285F4" stroke="black"/>
</svg>
