<svg width="512" height="470" viewBox="0 0 512 470" fill="none" xmlns="http://www.w3.org/2000/svg">
<path d="M469.687 78.5829L469.833 78.4364V78.2293V64C469.833 58.2094 467.533 52.656 463.439 48.5615C459.344 44.467 453.791 42.1667 448 42.1667H64C58.2094 42.1667 52.656 44.467 48.5615 48.5615C44.467 52.656 42.1667 58.2094 42.1667 64V78.2293V78.4364L42.3131 78.5829L210.377 246.668L210.378 246.669C222.494 258.737 238.899 265.513 256 265.513C273.101 265.513 289.506 258.737 301.622 246.669L301.623 246.668L469.687 78.5829ZM42.1667 426.667V427.167H42.6667H469.333H469.833V426.667V138.667V137.46L468.98 138.313L331.082 276.126C311.151 296.006 284.15 307.17 256 307.17C227.85 307.17 200.849 296.006 180.918 276.126L43.0201 138.313L42.1667 137.46V138.667V426.667ZM64 0.5H448C464.841 0.5 480.993 7.19016 492.901 19.0987C504.81 31.0073 511.5 47.1588 511.5 64V468.833H0.5V64C0.5 47.1588 7.19016 31.0073 19.0987 19.0987C31.0073 7.19016 47.1588 0.5 64 0.5Z" fill="#4285F4" stroke="black"/>
</svg>
