<svg width="512" height="512" viewBox="0 0 512 512" fill="none" xmlns="http://www.w3.org/2000/svg">
<path d="M255.879 42.1667H255.878C199.166 42.1667 144.777 64.6955 104.675 104.797C64.5738 144.899 42.045 199.288 42.045 256C42.045 312.712 64.5738 367.101 104.675 407.203C144.777 447.305 199.166 469.833 255.878 469.833H468.828H469.328V469.333V241.941V241.924L469.327 241.908C465.66 187.772 441.586 137.045 401.968 99.9705C362.35 62.8963 310.139 42.2376 255.879 42.1667ZM510.994 511.5L255.879 511.5C255.878 511.5 255.878 511.5 255.878 511.5C206.034 511.476 157.286 496.874 115.637 469.491C73.9883 442.108 41.2583 403.142 21.4787 357.39C1.69909 311.639 -4.26639 261.101 4.31707 212.001C12.9005 162.902 35.658 117.385 69.7865 81.0579C103.915 44.7306 147.924 19.179 196.393 7.55049C244.861 -4.07803 295.673 -1.27563 342.569 15.6125C389.464 32.5007 430.396 62.7369 460.323 102.597C490.246 142.453 507.86 190.191 510.994 239.931V241.259V511.5Z" fill="#4285F4" stroke="black"/>
<path d="M149.328 149.833H276.328V191.5H149.328V149.833Z" fill="#4285F4" stroke="black"/>
<path d="M149.328 235.167H361.661V276.833H149.328V235.167Z" fill="#4285F4" stroke="black"/>
<path d="M149.328 320.5H361.661V362.167H149.328V320.5Z" fill="#4285F4" stroke="black"/>
</svg>
