<svg width="90" height="90" viewBox="0 0 90 90" fill="none" xmlns="http://www.w3.org/2000/svg">
<path d="M1.55831 86.1367L1.56158 86.1236L1.56461 86.1105L9.16461 53.2105L9.1673 53.1988L9.1698 53.1872C9.33047 52.4374 9.99382 51.7887 10.8824 51.6623L53.3451 47.2662C54.8803 47.129 55.6031 45.8412 55.6031 44.7604C55.6031 43.6899 54.9118 42.437 53.4497 42.1933L53.3987 42.1848L53.3471 42.1798L10.8471 38.0798L10.825 38.0777L10.8029 38.0762C9.99397 38.0223 9.33419 37.4257 9.1698 36.6586L9.1672 36.6464L9.16439 36.6343L1.56439 3.83427L1.56146 3.82164L1.55831 3.80906C1.19061 2.33823 2.79838 0.94817 4.33163 1.71418C4.33185 1.71429 4.33207 1.7144 4.33228 1.71451L87.4197 43.3082C88.8304 44.0501 88.8309 46.0941 87.421 46.8368L4.33422 88.2302L4.33228 88.2312C2.79883 88.9979 1.19056 87.6077 1.55831 86.1367Z" fill="white" stroke="#4285F4" stroke-width="3"/>
</svg>
