<svg width="1048" height="1048" viewBox="0 0 1048 1048" fill="none" xmlns="http://www.w3.org/2000/svg">
<mask id="path-1-outside-1_19_20" maskUnits="userSpaceOnUse" x="0" y="0" width="1048" height="1048" fill="black">
<rect fill="white" width="1048" height="1048"/>
<path d="M523.693 1035.7C454.122 1035.76 385.272 1021.6 321.372 994.089C257.472 966.574 199.872 926.287 152.109 875.702C71.1169 790.131 22.126 679.238 13.4047 561.738C4.68343 444.239 36.7657 327.329 104.237 230.738C171.708 134.148 270.437 63.7916 383.761 31.5443C497.084 -0.702997 618.063 7.13307 726.28 53.73C834.497 100.327 923.325 182.831 977.772 287.319C1032.22 391.806 1048.95 511.879 1025.14 627.271C1001.34 742.663 938.452 846.31 847.097 920.717C755.743 995.125 641.516 1035.74 523.693 1035.7ZM833.325 875.702C747.923 800.052 637.782 758.285 523.693 758.285C409.604 758.285 299.463 800.052 214.061 875.702C299.513 951.247 409.635 992.946 523.693 992.946C637.751 992.946 747.873 951.247 833.325 875.702ZM758.36 481.035C758.36 434.622 744.597 389.252 718.811 350.661C693.026 312.07 656.376 281.992 613.496 264.231C570.616 246.47 523.433 241.823 477.912 250.877C432.391 259.932 390.577 282.282 357.759 315.1C324.94 347.919 302.59 389.733 293.535 435.254C284.481 480.775 289.128 527.958 306.889 570.838C324.651 613.718 354.729 650.368 393.319 676.153C431.91 701.939 477.28 715.702 523.693 715.702C585.931 715.702 645.619 690.978 689.628 646.969C733.636 602.961 758.36 543.272 758.36 481.035ZM523.693 54.3682C431.989 54.2914 342.275 81.1086 265.657 131.5C189.039 181.892 128.881 253.646 92.6283 337.881C56.3758 422.115 45.621 515.131 61.6951 605.416C77.7692 695.7 119.967 779.289 183.064 845.835C245.609 789.805 321.01 750.068 402.584 730.144C346.13 702.74 300.639 657 273.544 600.398C246.448 543.795 239.35 479.676 253.41 418.518C267.469 357.36 301.854 302.777 350.948 263.689C400.041 224.601 460.939 203.319 523.693 203.319C586.447 203.319 647.345 224.601 696.438 263.689C745.532 302.777 779.917 357.36 793.977 418.518C808.036 479.676 800.938 543.795 773.843 600.398C746.747 657 701.256 702.74 644.802 730.144C726.377 750.068 801.777 789.805 864.322 845.835C927.42 779.289 969.617 695.7 985.691 605.416C1001.77 515.131 991.01 422.115 954.758 337.881C918.505 253.646 858.347 181.892 781.729 131.5C705.111 81.1086 615.397 54.2914 523.693 54.3682Z"/>
</mask>
<path d="M523.693 1035.7C454.122 1035.76 385.272 1021.6 321.372 994.089C257.472 966.574 199.872 926.287 152.109 875.702C71.1169 790.131 22.126 679.238 13.4047 561.738C4.68343 444.239 36.7657 327.329 104.237 230.738C171.708 134.148 270.437 63.7916 383.761 31.5443C497.084 -0.702997 618.063 7.13307 726.28 53.73C834.497 100.327 923.325 182.831 977.772 287.319C1032.22 391.806 1048.95 511.879 1025.14 627.271C1001.34 742.663 938.452 846.31 847.097 920.717C755.743 995.125 641.516 1035.74 523.693 1035.7ZM833.325 875.702C747.923 800.052 637.782 758.285 523.693 758.285C409.604 758.285 299.463 800.052 214.061 875.702C299.513 951.247 409.635 992.946 523.693 992.946C637.751 992.946 747.873 951.247 833.325 875.702ZM758.36 481.035C758.36 434.622 744.597 389.252 718.811 350.661C693.026 312.07 656.376 281.992 613.496 264.231C570.616 246.47 523.433 241.823 477.912 250.877C432.391 259.932 390.577 282.282 357.759 315.1C324.94 347.919 302.59 389.733 293.535 435.254C284.481 480.775 289.128 527.958 306.889 570.838C324.651 613.718 354.729 650.368 393.319 676.153C431.91 701.939 477.28 715.702 523.693 715.702C585.931 715.702 645.619 690.978 689.628 646.969C733.636 602.961 758.36 543.272 758.36 481.035ZM523.693 54.3682C431.989 54.2914 342.275 81.1086 265.657 131.5C189.039 181.892 128.881 253.646 92.6283 337.881C56.3758 422.115 45.621 515.131 61.6951 605.416C77.7692 695.7 119.967 779.289 183.064 845.835C245.609 789.805 321.01 750.068 402.584 730.144C346.13 702.74 300.639 657 273.544 600.398C246.448 543.795 239.35 479.676 253.41 418.518C267.469 357.36 301.854 302.777 350.948 263.689C400.041 224.601 460.939 203.319 523.693 203.319C586.447 203.319 647.345 224.601 696.438 263.689C745.532 302.777 779.917 357.36 793.977 418.518C808.036 479.676 800.938 543.795 773.843 600.398C746.747 657 701.256 702.74 644.802 730.144C726.377 750.068 801.777 789.805 864.322 845.835C927.42 779.289 969.617 695.7 985.691 605.416C1001.77 515.131 991.01 422.115 954.758 337.881C918.505 253.646 858.347 181.892 781.729 131.5C705.111 81.1086 615.397 54.2914 523.693 54.3682Z" fill="#4285F4"/>
<path d="M523.693 1035.7C454.122 1035.76 385.272 1021.6 321.372 994.089C257.472 966.574 199.872 926.287 152.109 875.702C71.1169 790.131 22.126 679.238 13.4047 561.738C4.68343 444.239 36.7657 327.329 104.237 230.738C171.708 134.148 270.437 63.7916 383.761 31.5443C497.084 -0.702997 618.063 7.13307 726.28 53.73C834.497 100.327 923.325 182.831 977.772 287.319C1032.22 391.806 1048.95 511.879 1025.14 627.271C1001.34 742.663 938.452 846.31 847.097 920.717C755.743 995.125 641.516 1035.74 523.693 1035.7ZM833.325 875.702C747.923 800.052 637.782 758.285 523.693 758.285C409.604 758.285 299.463 800.052 214.061 875.702C299.513 951.247 409.635 992.946 523.693 992.946C637.751 992.946 747.873 951.247 833.325 875.702ZM758.36 481.035C758.36 434.622 744.597 389.252 718.811 350.661C693.026 312.07 656.376 281.992 613.496 264.231C570.616 246.47 523.433 241.823 477.912 250.877C432.391 259.932 390.577 282.282 357.759 315.1C324.94 347.919 302.59 389.733 293.535 435.254C284.481 480.775 289.128 527.958 306.889 570.838C324.651 613.718 354.729 650.368 393.319 676.153C431.91 701.939 477.28 715.702 523.693 715.702C585.931 715.702 645.619 690.978 689.628 646.969C733.636 602.961 758.36 543.272 758.36 481.035ZM523.693 54.3682C431.989 54.2914 342.275 81.1086 265.657 131.5C189.039 181.892 128.881 253.646 92.6283 337.881C56.3758 422.115 45.621 515.131 61.6951 605.416C77.7692 695.7 119.967 779.289 183.064 845.835C245.609 789.805 321.01 750.068 402.584 730.144C346.13 702.74 300.639 657 273.544 600.398C246.448 543.795 239.35 479.676 253.41 418.518C267.469 357.36 301.854 302.777 350.948 263.689C400.041 224.601 460.939 203.319 523.693 203.319C586.447 203.319 647.345 224.601 696.438 263.689C745.532 302.777 779.917 357.36 793.977 418.518C808.036 479.676 800.938 543.795 773.843 600.398C746.747 657 701.256 702.74 644.802 730.144C726.377 750.068 801.777 789.805 864.322 845.835C927.42 779.289 969.617 695.7 985.691 605.416C1001.77 515.131 991.01 422.115 954.758 337.881C918.505 253.646 858.347 181.892 781.729 131.5C705.111 81.1086 615.397 54.2914 523.693 54.3682Z" stroke="#4285F4" stroke-width="24" mask="url(#path-1-outside-1_19_20)"/>
</svg>
